<svg xmlns="http://www.w3.org/2000/svg" width="1200" height="900" viewBox="0 0 1200 900" fill="none">
  <rect width="1200" height="900" rx="44" fill="#0f172a" />
  <rect x="70" y="80" width="1060" height="740" rx="36" fill="#1e293b" />
  <rect x="130" y="140" width="420" height="250" rx="28" fill="#f8fafc" />
  <rect x="170" y="184" width="180" height="20" rx="10" fill="#4f46e5" />
  <rect x="170" y="224" width="310" height="16" rx="8" fill="#94a3b8" />
  <rect x="170" y="256" width="260" height="16" rx="8" fill="#cbd5e1" />
  <rect x="170" y="310" width="110" height="38" rx="19" fill="#4f46e5" />
  <rect x="600" y="140" width="470" height="250" rx="28" fill="#111827" />
  <path d="M660 314C713 253 762 248 815 278C859 302 910 302 1005 208" stroke="#22c55e" stroke-width="16" stroke-linecap="round" />
  <circle cx="660" cy="314" r="18" fill="#22c55e" />
  <circle cx="815" cy="278" r="18" fill="#4f46e5" />
  <circle cx="1005" cy="208" r="18" fill="#f8fafc" />
  <rect x="130" y="440" width="940" height="300" rx="28" fill="#f8fafc" />
  <rect x="180" y="500" width="170" height="170" rx="24" fill="#eef2ff" />
  <rect x="390" y="500" width="170" height="170" rx="24" fill="#f0fdf4" />
  <rect x="600" y="500" width="170" height="170" rx="24" fill="#fff7ed" />
  <rect x="810" y="500" width="210" height="170" rx="24" fill="#f8fafc" stroke="#e2e8f0" stroke-width="10" />
  <rect x="212" y="554" width="106" height="18" rx="9" fill="#4f46e5" />
  <rect x="422" y="554" width="106" height="18" rx="9" fill="#22c55e" />
  <rect x="632" y="554" width="106" height="18" rx="9" fill="#f97316" />
  <rect x="842" y="538" width="58" height="98" rx="14" fill="#4f46e5" />
  <rect x="918" y="500" width="58" height="136" rx="14" fill="#22c55e" />
  <rect x="994" y="570" width="58" height="66" rx="14" fill="#f97316" />
</svg>
